# Round pedestal, radius 0.6 m, top at y = 0.45 m.
# Generated by scripts/gen_sample_models.py. Public domain (CC0).
o product_stand
v 0.600000 0.000000 -0.000000
v 0.598715 0.000000 -0.039242
v 0.594867 0.000000 -0.078316
v 0.588471 0.000000 -0.117054
v 0.579555 0.000000 -0.155291
v 0.568158 0.000000 -0.192864
v 0.554328 0.000000 -0.229610
v 0.538124 0.000000 -0.265373
v 0.519615 0.000000 -0.300000
v 0.498882 0.000000 -0.333342
v 0.476012 0.000000 -0.365257
v 0.451104 0.000000 -0.395607
v 0.424264 0.000000 -0.424264
v 0.395607 0.000000 -0.451104
v 0.365257 0.000000 -0.476012
v 0.333342 0.000000 -0.498882
v 0.300000 0.000000 -0.519615
v 0.265373 0.000000 -0.538124
v 0.229610 0.000000 -0.554328
v 0.192864 0.000000 -0.568158
v 0.155291 0.000000 -0.579555
v 0.117054 0.000000 -0.588471
v 0.078316 0.000000 -0.594867
v 0.039242 0.000000 -0.598715
v 0.000000 0.000000 -0.600000
v -0.039242 0.000000 -0.598715
v -0.078316 0.000000 -0.594867
v -0.117054 0.000000 -0.588471
v -0.155291 0.000000 -0.579555
v -0.192864 0.000000 -0.568158
v -0.229610 0.000000 -0.554328
v -0.265373 0.000000 -0.538124
v -0.300000 0.000000 -0.519615
v -0.333342 0.000000 -0.498882
v -0.365257 0.000000 -0.476012
v -0.395607 0.000000 -0.451104
v -0.424264 0.000000 -0.424264
v -0.451104 0.000000 -0.395607
v -0.476012 0.000000 -0.365257
v -0.498882 0.000000 -0.333342
v -0.519615 0.000000 -0.300000
v -0.538124 0.000000 -0.265373
v -0.554328 0.000000 -0.229610
v -0.568158 0.000000 -0.192864
v -0.579555 0.000000 -0.155291
v -0.588471 0.000000 -0.117054
v -0.594867 0.000000 -0.078316
v -0.598715 0.000000 -0.039242
v -0.600000 0.000000 -0.000000
v -0.598715 0.000000 0.039242
v -0.594867 0.000000 0.078316
v -0.588471 0.000000 0.117054
v -0.579555 0.000000 0.155291
v -0.568158 0.000000 0.192864
v -0.554328 0.000000 0.229610
v -0.538124 0.000000 0.265373
v -0.519615 0.000000 0.300000
v -0.498882 0.000000 0.333342
v -0.476012 0.000000 0.365257
v -0.451104 0.000000 0.395607
v -0.424264 0.000000 0.424264
v -0.395607 0.000000 0.451104
v -0.365257 0.000000 0.476012
v -0.333342 0.000000 0.498882
v -0.300000 0.000000 0.519615
v -0.265373 0.000000 0.538124
v -0.229610 0.000000 0.554328
v -0.192864 0.000000 0.568158
v -0.155291 0.000000 0.579555
v -0.117054 0.000000 0.588471
v -0.078316 0.000000 0.594867
v -0.039242 0.000000 0.598715
v -0.000000 0.000000 0.600000
v 0.039242 0.000000 0.598715
v 0.078316 0.000000 0.594867
v 0.117054 0.000000 0.588471
v 0.155291 0.000000 0.579555
v 0.192864 0.000000 0.568158
v 0.229610 0.000000 0.554328
v 0.265373 0.000000 0.538124
v 0.300000 0.000000 0.519615
v 0.333342 0.000000 0.498882
v 0.365257 0.000000 0.476012
v 0.395607 0.000000 0.451104
v 0.424264 0.000000 0.424264
v 0.451104 0.000000 0.395607
v 0.476012 0.000000 0.365257
v 0.498882 0.000000 0.333342
v 0.519615 0.000000 0.300000
v 0.538124 0.000000 0.265373
v 0.554328 0.000000 0.229610
v 0.568158 0.000000 0.192864
v 0.579555 0.000000 0.155291
v 0.588471 0.000000 0.117054
v 0.594867 0.000000 0.078316
v 0.598715 0.000000 0.039242
v 0.600000 0.000000 0.000000
v 0.600000 0.430000 -0.000000
v 0.598715 0.430000 -0.039242
v 0.594867 0.430000 -0.078316
v 0.588471 0.430000 -0.117054
v 0.579555 0.430000 -0.155291
v 0.568158 0.430000 -0.192864
v 0.554328 0.430000 -0.229610
v 0.538124 0.430000 -0.265373
v 0.519615 0.430000 -0.300000
v 0.498882 0.430000 -0.333342
v 0.476012 0.430000 -0.365257
v 0.451104 0.430000 -0.395607
v 0.424264 0.430000 -0.424264
v 0.395607 0.430000 -0.451104
v 0.365257 0.430000 -0.476012
v 0.333342 0.430000 -0.498882
v 0.300000 0.430000 -0.519615
v 0.265373 0.430000 -0.538124
v 0.229610 0.430000 -0.554328
v 0.192864 0.430000 -0.568158
v 0.155291 0.430000 -0.579555
v 0.117054 0.430000 -0.588471
v 0.078316 0.430000 -0.594867
v 0.039242 0.430000 -0.598715
v 0.000000 0.430000 -0.600000
v -0.039242 0.430000 -0.598715
v -0.078316 0.430000 -0.594867
v -0.117054 0.430000 -0.588471
v -0.155291 0.430000 -0.579555
v -0.192864 0.430000 -0.568158
v -0.229610 0.430000 -0.554328
v -0.265373 0.430000 -0.538124
v -0.300000 0.430000 -0.519615
v -0.333342 0.430000 -0.498882
v -0.365257 0.430000 -0.476012
v -0.395607 0.430000 -0.451104
v -0.424264 0.430000 -0.424264
v -0.451104 0.430000 -0.395607
v -0.476012 0.430000 -0.365257
v -0.498882 0.430000 -0.333342
v -0.519615 0.430000 -0.300000
v -0.538124 0.430000 -0.265373
v -0.554328 0.430000 -0.229610
v -0.568158 0.430000 -0.192864
v -0.579555 0.430000 -0.155291
v -0.588471 0.430000 -0.117054
v -0.594867 0.430000 -0.078316
v -0.598715 0.430000 -0.039242
v -0.600000 0.430000 -0.000000
v -0.598715 0.430000 0.039242
v -0.594867 0.430000 0.078316
v -0.588471 0.430000 0.117054
v -0.579555 0.430000 0.155291
v -0.568158 0.430000 0.192864
v -0.554328 0.430000 0.229610
v -0.538124 0.430000 0.265373
v -0.519615 0.430000 0.300000
v -0.498882 0.430000 0.333342
v -0.476012 0.430000 0.365257
v -0.451104 0.430000 0.395607
v -0.424264 0.430000 0.424264
v -0.395607 0.430000 0.451104
v -0.365257 0.430000 0.476012
v -0.333342 0.430000 0.498882
v -0.300000 0.430000 0.519615
v -0.265373 0.430000 0.538124
v -0.229610 0.430000 0.554328
v -0.192864 0.430000 0.568158
v -0.155291 0.430000 0.579555
v -0.117054 0.430000 0.588471
v -0.078316 0.430000 0.594867
v -0.039242 0.430000 0.598715
v -0.000000 0.430000 0.600000
v 0.039242 0.430000 0.598715
v 0.078316 0.430000 0.594867
v 0.117054 0.430000 0.588471
v 0.155291 0.430000 0.579555
v 0.192864 0.430000 0.568158
v 0.229610 0.430000 0.554328
v 0.265373 0.430000 0.538124
v 0.300000 0.430000 0.519615
v 0.333342 0.430000 0.498882
v 0.365257 0.430000 0.476012
v 0.395607 0.430000 0.451104
v 0.424264 0.430000 0.424264
v 0.451104 0.430000 0.395607
v 0.476012 0.430000 0.365257
v 0.498882 0.430000 0.333342
v 0.519615 0.430000 0.300000
v 0.538124 0.430000 0.265373
v 0.554328 0.430000 0.229610
v 0.568158 0.430000 0.192864
v 0.579555 0.430000 0.155291
v 0.588471 0.430000 0.117054
v 0.594867 0.430000 0.078316
v 0.598715 0.430000 0.039242
v 0.600000 0.430000 0.000000
v 0.600000 0.430000 -0.000000
v 0.598715 0.430000 -0.039242
v 0.594867 0.430000 -0.078316
v 0.588471 0.430000 -0.117054
v 0.579555 0.430000 -0.155291
v 0.568158 0.430000 -0.192864
v 0.554328 0.430000 -0.229610
v 0.538124 0.430000 -0.265373
v 0.519615 0.430000 -0.300000
v 0.498882 0.430000 -0.333342
v 0.476012 0.430000 -0.365257
v 0.451104 0.430000 -0.395607
v 0.424264 0.430000 -0.424264
v 0.395607 0.430000 -0.451104
v 0.365257 0.430000 -0.476012
v 0.333342 0.430000 -0.498882
v 0.300000 0.430000 -0.519615
v 0.265373 0.430000 -0.538124
v 0.229610 0.430000 -0.554328
v 0.192864 0.430000 -0.568158
v 0.155291 0.430000 -0.579555
v 0.117054 0.430000 -0.588471
v 0.078316 0.430000 -0.594867
v 0.039242 0.430000 -0.598715
v 0.000000 0.430000 -0.600000
v -0.039242 0.430000 -0.598715
v -0.078316 0.430000 -0.594867
v -0.117054 0.430000 -0.588471
v -0.155291 0.430000 -0.579555
v -0.192864 0.430000 -0.568158
v -0.229610 0.430000 -0.554328
v -0.265373 0.430000 -0.538124
v -0.300000 0.430000 -0.519615
v -0.333342 0.430000 -0.498882
v -0.365257 0.430000 -0.476012
v -0.395607 0.430000 -0.451104
v -0.424264 0.430000 -0.424264
v -0.451104 0.430000 -0.395607
v -0.476012 0.430000 -0.365257
v -0.498882 0.430000 -0.333342
v -0.519615 0.430000 -0.300000
v -0.538124 0.430000 -0.265373
v -0.554328 0.430000 -0.229610
v -0.568158 0.430000 -0.192864
v -0.579555 0.430000 -0.155291
v -0.588471 0.430000 -0.117054
v -0.594867 0.430000 -0.078316
v -0.598715 0.430000 -0.039242
v -0.600000 0.430000 -0.000000
v -0.598715 0.430000 0.039242
v -0.594867 0.430000 0.078316
v -0.588471 0.430000 0.117054
v -0.579555 0.430000 0.155291
v -0.568158 0.430000 0.192864
v -0.554328 0.430000 0.229610
v -0.538124 0.430000 0.265373
v -0.519615 0.430000 0.300000
v -0.498882 0.430000 0.333342
v -0.476012 0.430000 0.365257
v -0.451104 0.430000 0.395607
v -0.424264 0.430000 0.424264
v -0.395607 0.430000 0.451104
v -0.365257 0.430000 0.476012
v -0.333342 0.430000 0.498882
v -0.300000 0.430000 0.519615
v -0.265373 0.430000 0.538124
v -0.229610 0.430000 0.554328
v -0.192864 0.430000 0.568158
v -0.155291 0.430000 0.579555
v -0.117054 0.430000 0.588471
v -0.078316 0.430000 0.594867
v -0.039242 0.430000 0.598715
v -0.000000 0.430000 0.600000
v 0.039242 0.430000 0.598715
v 0.078316 0.430000 0.594867
v 0.117054 0.430000 0.588471
v 0.155291 0.430000 0.579555
v 0.192864 0.430000 0.568158
v 0.229610 0.430000 0.554328
v 0.265373 0.430000 0.538124
v 0.300000 0.430000 0.519615
v 0.333342 0.430000 0.498882
v 0.365257 0.430000 0.476012
v 0.395607 0.430000 0.451104
v 0.424264 0.430000 0.424264
v 0.451104 0.430000 0.395607
v 0.476012 0.430000 0.365257
v 0.498882 0.430000 0.333342
v 0.519615 0.430000 0.300000
v 0.538124 0.430000 0.265373
v 0.554328 0.430000 0.229610
v 0.568158 0.430000 0.192864
v 0.579555 0.430000 0.155291
v 0.588471 0.430000 0.117054
v 0.594867 0.430000 0.078316
v 0.598715 0.430000 0.039242
v 0.600000 0.430000 0.000000
v 0.580000 0.450000 -0.000000
v 0.578758 0.450000 -0.037934
v 0.575038 0.450000 -0.075705
v 0.568855 0.450000 -0.113152
v 0.560237 0.450000 -0.150115
v 0.549219 0.450000 -0.186435
v 0.535850 0.450000 -0.221956
v 0.520186 0.450000 -0.256527
v 0.502295 0.450000 -0.290000
v 0.482252 0.450000 -0.322231
v 0.460145 0.450000 -0.353082
v 0.436067 0.450000 -0.382421
v 0.410122 0.450000 -0.410122
v 0.382421 0.450000 -0.436067
v 0.353082 0.450000 -0.460145
v 0.322231 0.450000 -0.482252
v 0.290000 0.450000 -0.502295
v 0.256527 0.450000 -0.520186
v 0.221956 0.450000 -0.535850
v 0.186435 0.450000 -0.549219
v 0.150115 0.450000 -0.560237
v 0.113152 0.450000 -0.568855
v 0.075705 0.450000 -0.575038
v 0.037934 0.450000 -0.578758
v 0.000000 0.450000 -0.580000
v -0.037934 0.450000 -0.578758
v -0.075705 0.450000 -0.575038
v -0.113152 0.450000 -0.568855
v -0.150115 0.450000 -0.560237
v -0.186435 0.450000 -0.549219
v -0.221956 0.450000 -0.535850
v -0.256527 0.450000 -0.520186
v -0.290000 0.450000 -0.502295
v -0.322231 0.450000 -0.482252
v -0.353082 0.450000 -0.460145
v -0.382421 0.450000 -0.436067
v -0.410122 0.450000 -0.410122
v -0.436067 0.450000 -0.382421
v -0.460145 0.450000 -0.353082
v -0.482252 0.450000 -0.322231
v -0.502295 0.450000 -0.290000
v -0.520186 0.450000 -0.256527
v -0.535850 0.450000 -0.221956
v -0.549219 0.450000 -0.186435
v -0.560237 0.450000 -0.150115
v -0.568855 0.450000 -0.113152
v -0.575038 0.450000 -0.075705
v -0.578758 0.450000 -0.037934
v -0.580000 0.450000 -0.000000
v -0.578758 0.450000 0.037934
v -0.575038 0.450000 0.075705
v -0.568855 0.450000 0.113152
v -0.560237 0.450000 0.150115
v -0.549219 0.450000 0.186435
v -0.535850 0.450000 0.221956
v -0.520186 0.450000 0.256527
v -0.502295 0.450000 0.290000
v -0.482252 0.450000 0.322231
v -0.460145 0.450000 0.353082
v -0.436067 0.450000 0.382421
v -0.410122 0.450000 0.410122
v -0.382421 0.450000 0.436067
v -0.353082 0.450000 0.460145
v -0.322231 0.450000 0.482252
v -0.290000 0.450000 0.502295
v -0.256527 0.450000 0.520186
v -0.221956 0.450000 0.535850
v -0.186435 0.450000 0.549219
v -0.150115 0.450000 0.560237
v -0.113152 0.450000 0.568855
v -0.075705 0.450000 0.575038
v -0.037934 0.450000 0.578758
v -0.000000 0.450000 0.580000
v 0.037934 0.450000 0.578758
v 0.075705 0.450000 0.575038
v 0.113152 0.450000 0.568855
v 0.150115 0.450000 0.560237
v 0.186435 0.450000 0.549219
v 0.221956 0.450000 0.535850
v 0.256527 0.450000 0.520186
v 0.290000 0.450000 0.502295
v 0.322231 0.450000 0.482252
v 0.353082 0.450000 0.460145
v 0.382421 0.450000 0.436067
v 0.410122 0.450000 0.410122
v 0.436067 0.450000 0.382421
v 0.460145 0.450000 0.353082
v 0.482252 0.450000 0.322231
v 0.502295 0.450000 0.290000
v 0.520186 0.450000 0.256527
v 0.535850 0.450000 0.221956
v 0.549219 0.450000 0.186435
v 0.560237 0.450000 0.150115
v 0.568855 0.450000 0.113152
v 0.575038 0.450000 0.075705
v 0.578758 0.450000 0.037934
v 0.580000 0.450000 0.000000
v 0.000000 0.450000 0.000000
v 0.580000 0.450000 -0.000000
v 0.578758 0.450000 -0.037934
v 0.575038 0.450000 -0.075705
v 0.568855 0.450000 -0.113152
v 0.560237 0.450000 -0.150115
v 0.549219 0.450000 -0.186435
v 0.535850 0.450000 -0.221956
v 0.520186 0.450000 -0.256527
v 0.502295 0.450000 -0.290000
v 0.482252 0.450000 -0.322231
v 0.460145 0.450000 -0.353082
v 0.436067 0.450000 -0.382421
v 0.410122 0.450000 -0.410122
v 0.382421 0.450000 -0.436067
v 0.353082 0.450000 -0.460145
v 0.322231 0.450000 -0.482252
v 0.290000 0.450000 -0.502295
v 0.256527 0.450000 -0.520186
v 0.221956 0.450000 -0.535850
v 0.186435 0.450000 -0.549219
v 0.150115 0.450000 -0.560237
v 0.113152 0.450000 -0.568855
v 0.075705 0.450000 -0.575038
v 0.037934 0.450000 -0.578758
v 0.000000 0.450000 -0.580000
v -0.037934 0.450000 -0.578758
v -0.075705 0.450000 -0.575038
v -0.113152 0.450000 -0.568855
v -0.150115 0.450000 -0.560237
v -0.186435 0.450000 -0.549219
v -0.221956 0.450000 -0.535850
v -0.256527 0.450000 -0.520186
v -0.290000 0.450000 -0.502295
v -0.322231 0.450000 -0.482252
v -0.353082 0.450000 -0.460145
v -0.382421 0.450000 -0.436067
v -0.410122 0.450000 -0.410122
v -0.436067 0.450000 -0.382421
v -0.460145 0.450000 -0.353082
v -0.482252 0.450000 -0.322231
v -0.502295 0.450000 -0.290000
v -0.520186 0.450000 -0.256527
v -0.535850 0.450000 -0.221956
v -0.549219 0.450000 -0.186435
v -0.560237 0.450000 -0.150115
v -0.568855 0.450000 -0.113152
v -0.575038 0.450000 -0.075705
v -0.578758 0.450000 -0.037934
v -0.580000 0.450000 -0.000000
v -0.578758 0.450000 0.037934
v -0.575038 0.450000 0.075705
v -0.568855 0.450000 0.113152
v -0.560237 0.450000 0.150115
v -0.549219 0.450000 0.186435
v -0.535850 0.450000 0.221956
v -0.520186 0.450000 0.256527
v -0.502295 0.450000 0.290000
v -0.482252 0.450000 0.322231
v -0.460145 0.450000 0.353082
v -0.436067 0.450000 0.382421
v -0.410122 0.450000 0.410122
v -0.382421 0.450000 0.436067
v -0.353082 0.450000 0.460145
v -0.322231 0.450000 0.482252
v -0.290000 0.450000 0.502295
v -0.256527 0.450000 0.520186
v -0.221956 0.450000 0.535850
v -0.186435 0.450000 0.549219
v -0.150115 0.450000 0.560237
v -0.113152 0.450000 0.568855
v -0.075705 0.450000 0.575038
v -0.037934 0.450000 0.578758
v -0.000000 0.450000 0.580000
v 0.037934 0.450000 0.578758
v 0.075705 0.450000 0.575038
v 0.113152 0.450000 0.568855
v 0.150115 0.450000 0.560237
v 0.186435 0.450000 0.549219
v 0.221956 0.450000 0.535850
v 0.256527 0.450000 0.520186
v 0.290000 0.450000 0.502295
v 0.322231 0.450000 0.482252
v 0.353082 0.450000 0.460145
v 0.382421 0.450000 0.436067
v 0.410122 0.450000 0.410122
v 0.436067 0.450000 0.382421
v 0.460145 0.450000 0.353082
v 0.482252 0.450000 0.322231
v 0.502295 0.450000 0.290000
v 0.520186 0.450000 0.256527
v 0.535850 0.450000 0.221956
v 0.549219 0.450000 0.186435
v 0.560237 0.450000 0.150115
v 0.568855 0.450000 0.113152
v 0.575038 0.450000 0.075705
v 0.578758 0.450000 0.037934
v 0.000000 0.000000 0.000000
v 0.600000 0.000000 -0.000000
v 0.598715 0.000000 -0.039242
v 0.594867 0.000000 -0.078316
v 0.588471 0.000000 -0.117054
v 0.579555 0.000000 -0.155291
v 0.568158 0.000000 -0.192864
v 0.554328 0.000000 -0.229610
v 0.538124 0.000000 -0.265373
v 0.519615 0.000000 -0.300000
v 0.498882 0.000000 -0.333342
v 0.476012 0.000000 -0.365257
v 0.451104 0.000000 -0.395607
v 0.424264 0.000000 -0.424264
v 0.395607 0.000000 -0.451104
v 0.365257 0.000000 -0.476012
v 0.333342 0.000000 -0.498882
v 0.300000 0.000000 -0.519615
v 0.265373 0.000000 -0.538124
v 0.229610 0.000000 -0.554328
v 0.192864 0.000000 -0.568158
v 0.155291 0.000000 -0.579555
v 0.117054 0.000000 -0.588471
v 0.078316 0.000000 -0.594867
v 0.039242 0.000000 -0.598715
v 0.000000 0.000000 -0.600000
v -0.039242 0.000000 -0.598715
v -0.078316 0.000000 -0.594867
v -0.117054 0.000000 -0.588471
v -0.155291 0.000000 -0.579555
v -0.192864 0.000000 -0.568158
v -0.229610 0.000000 -0.554328
v -0.265373 0.000000 -0.538124
v -0.300000 0.000000 -0.519615
v -0.333342 0.000000 -0.498882
v -0.365257 0.000000 -0.476012
v -0.395607 0.000000 -0.451104
v -0.424264 0.000000 -0.424264
v -0.451104 0.000000 -0.395607
v -0.476012 0.000000 -0.365257
v -0.498882 0.000000 -0.333342
v -0.519615 0.000000 -0.300000
v -0.538124 0.000000 -0.265373
v -0.554328 0.000000 -0.229610
v -0.568158 0.000000 -0.192864
v -0.579555 0.000000 -0.155291
v -0.588471 0.000000 -0.117054
v -0.594867 0.000000 -0.078316
v -0.598715 0.000000 -0.039242
v -0.600000 0.000000 -0.000000
v -0.598715 0.000000 0.039242
v -0.594867 0.000000 0.078316
v -0.588471 0.000000 0.117054
v -0.579555 0.000000 0.155291
v -0.568158 0.000000 0.192864
v -0.554328 0.000000 0.229610
v -0.538124 0.000000 0.265373
v -0.519615 0.000000 0.300000
v -0.498882 0.000000 0.333342
v -0.476012 0.000000 0.365257
v -0.451104 0.000000 0.395607
v -0.424264 0.000000 0.424264
v -0.395607 0.000000 0.451104
v -0.365257 0.000000 0.476012
v -0.333342 0.000000 0.498882
v -0.300000 0.000000 0.519615
v -0.265373 0.000000 0.538124
v -0.229610 0.000000 0.554328
v -0.192864 0.000000 0.568158
v -0.155291 0.000000 0.579555
v -0.117054 0.000000 0.588471
v -0.078316 0.000000 0.594867
v -0.039242 0.000000 0.598715
v -0.000000 0.000000 0.600000
v 0.039242 0.000000 0.598715
v 0.078316 0.000000 0.594867
v 0.117054 0.000000 0.588471
v 0.155291 0.000000 0.579555
v 0.192864 0.000000 0.568158
v 0.229610 0.000000 0.554328
v 0.265373 0.000000 0.538124
v 0.300000 0.000000 0.519615
v 0.333342 0.000000 0.498882
v 0.365257 0.000000 0.476012
v 0.395607 0.000000 0.451104
v 0.424264 0.000000 0.424264
v 0.451104 0.000000 0.395607
v 0.476012 0.000000 0.365257
v 0.498882 0.000000 0.333342
v 0.519615 0.000000 0.300000
v 0.538124 0.000000 0.265373
v 0.554328 0.000000 0.229610
v 0.568158 0.000000 0.192864
v 0.579555 0.000000 0.155291
v 0.588471 0.000000 0.117054
v 0.594867 0.000000 0.078316
v 0.598715 0.000000 0.039242
vt 0.000000 0.000000
vt 0.010417 0.000000
vt 0.020833 0.000000
vt 0.031250 0.000000
vt 0.041667 0.000000
vt 0.052083 0.000000
vt 0.062500 0.000000
vt 0.072917 0.000000
vt 0.083333 0.000000
vt 0.093750 0.000000
vt 0.104167 0.000000
vt 0.114583 0.000000
vt 0.125000 0.000000
vt 0.135417 0.000000
vt 0.145833 0.000000
vt 0.156250 0.000000
vt 0.166667 0.000000
vt 0.177083 0.000000
vt 0.187500 0.000000
vt 0.197917 0.000000
vt 0.208333 0.000000
vt 0.218750 0.000000
vt 0.229167 0.000000
vt 0.239583 0.000000
vt 0.250000 0.000000
vt 0.260417 0.000000
vt 0.270833 0.000000
vt 0.281250 0.000000
vt 0.291667 0.000000
vt 0.302083 0.000000
vt 0.312500 0.000000
vt 0.322917 0.000000
vt 0.333333 0.000000
vt 0.343750 0.000000
vt 0.354167 0.000000
vt 0.364583 0.000000
vt 0.375000 0.000000
vt 0.385417 0.000000
vt 0.395833 0.000000
vt 0.406250 0.000000
vt 0.416667 0.000000
vt 0.427083 0.000000
vt 0.437500 0.000000
vt 0.447917 0.000000
vt 0.458333 0.000000
vt 0.468750 0.000000
vt 0.479167 0.000000
vt 0.489583 0.000000
vt 0.500000 0.000000
vt 0.510417 0.000000
vt 0.520833 0.000000
vt 0.531250 0.000000
vt 0.541667 0.000000
vt 0.552083 0.000000
vt 0.562500 0.000000
vt 0.572917 0.000000
vt 0.583333 0.000000
vt 0.593750 0.000000
vt 0.604167 0.000000
vt 0.614583 0.000000
vt 0.625000 0.000000
vt 0.635417 0.000000
vt 0.645833 0.000000
vt 0.656250 0.000000
vt 0.666667 0.000000
vt 0.677083 0.000000
vt 0.687500 0.000000
vt 0.697917 0.000000
vt 0.708333 0.000000
vt 0.718750 0.000000
vt 0.729167 0.000000
vt 0.739583 0.000000
vt 0.750000 0.000000
vt 0.760417 0.000000
vt 0.770833 0.000000
vt 0.781250 0.000000
vt 0.791667 0.000000
vt 0.802083 0.000000
vt 0.812500 0.000000
vt 0.822917 0.000000
vt 0.833333 0.000000
vt 0.843750 0.000000
vt 0.854167 0.000000
vt 0.864583 0.000000
vt 0.875000 0.000000
vt 0.885417 0.000000
vt 0.895833 0.000000
vt 0.906250 0.000000
vt 0.916667 0.000000
vt 0.927083 0.000000
vt 0.937500 0.000000
vt 0.947917 0.000000
vt 0.958333 0.000000
vt 0.968750 0.000000
vt 0.979167 0.000000
vt 0.989583 0.000000
vt 1.000000 0.000000
vt 0.000000 0.955556
vt 0.010417 0.955556
vt 0.020833 0.955556
vt 0.031250 0.955556
vt 0.041667 0.955556
vt 0.052083 0.955556
vt 0.062500 0.955556
vt 0.072917 0.955556
vt 0.083333 0.955556
vt 0.093750 0.955556
vt 0.104167 0.955556
vt 0.114583 0.955556
vt 0.125000 0.955556
vt 0.135417 0.955556
vt 0.145833 0.955556
vt 0.156250 0.955556
vt 0.166667 0.955556
vt 0.177083 0.955556
vt 0.187500 0.955556
vt 0.197917 0.955556
vt 0.208333 0.955556
vt 0.218750 0.955556
vt 0.229167 0.955556
vt 0.239583 0.955556
vt 0.250000 0.955556
vt 0.260417 0.955556
vt 0.270833 0.955556
vt 0.281250 0.955556
vt 0.291667 0.955556
vt 0.302083 0.955556
vt 0.312500 0.955556
vt 0.322917 0.955556
vt 0.333333 0.955556
vt 0.343750 0.955556
vt 0.354167 0.955556
vt 0.364583 0.955556
vt 0.375000 0.955556
vt 0.385417 0.955556
vt 0.395833 0.955556
vt 0.406250 0.955556
vt 0.416667 0.955556
vt 0.427083 0.955556
vt 0.437500 0.955556
vt 0.447917 0.955556
vt 0.458333 0.955556
vt 0.468750 0.955556
vt 0.479167 0.955556
vt 0.489583 0.955556
vt 0.500000 0.955556
vt 0.510417 0.955556
vt 0.520833 0.955556
vt 0.531250 0.955556
vt 0.541667 0.955556
vt 0.552083 0.955556
vt 0.562500 0.955556
vt 0.572917 0.955556
vt 0.583333 0.955556
vt 0.593750 0.955556
vt 0.604167 0.955556
vt 0.614583 0.955556
vt 0.625000 0.955556
vt 0.635417 0.955556
vt 0.645833 0.955556
vt 0.656250 0.955556
vt 0.666667 0.955556
vt 0.677083 0.955556
vt 0.687500 0.955556
vt 0.697917 0.955556
vt 0.708333 0.955556
vt 0.718750 0.955556
vt 0.729167 0.955556
vt 0.739583 0.955556
vt 0.750000 0.955556
vt 0.760417 0.955556
vt 0.770833 0.955556
vt 0.781250 0.955556
vt 0.791667 0.955556
vt 0.802083 0.955556
vt 0.812500 0.955556
vt 0.822917 0.955556
vt 0.833333 0.955556
vt 0.843750 0.955556
vt 0.854167 0.955556
vt 0.864583 0.955556
vt 0.875000 0.955556
vt 0.885417 0.955556
vt 0.895833 0.955556
vt 0.906250 0.955556
vt 0.916667 0.955556
vt 0.927083 0.955556
vt 0.937500 0.955556
vt 0.947917 0.955556
vt 0.958333 0.955556
vt 0.968750 0.955556
vt 0.979167 0.955556
vt 0.989583 0.955556
vt 1.000000 0.955556
vt 0.000000 0.955556
vt 0.010417 0.955556
vt 0.020833 0.955556
vt 0.031250 0.955556
vt 0.041667 0.955556
vt 0.052083 0.955556
vt 0.062500 0.955556
vt 0.072917 0.955556
vt 0.083333 0.955556
vt 0.093750 0.955556
vt 0.104167 0.955556
vt 0.114583 0.955556
vt 0.125000 0.955556
vt 0.135417 0.955556
vt 0.145833 0.955556
vt 0.156250 0.955556
vt 0.166667 0.955556
vt 0.177083 0.955556
vt 0.187500 0.955556
vt 0.197917 0.955556
vt 0.208333 0.955556
vt 0.218750 0.955556
vt 0.229167 0.955556
vt 0.239583 0.955556
vt 0.250000 0.955556
vt 0.260417 0.955556
vt 0.270833 0.955556
vt 0.281250 0.955556
vt 0.291667 0.955556
vt 0.302083 0.955556
vt 0.312500 0.955556
vt 0.322917 0.955556
vt 0.333333 0.955556
vt 0.343750 0.955556
vt 0.354167 0.955556
vt 0.364583 0.955556
vt 0.375000 0.955556
vt 0.385417 0.955556
vt 0.395833 0.955556
vt 0.406250 0.955556
vt 0.416667 0.955556
vt 0.427083 0.955556
vt 0.437500 0.955556
vt 0.447917 0.955556
vt 0.458333 0.955556
vt 0.468750 0.955556
vt 0.479167 0.955556
vt 0.489583 0.955556
vt 0.500000 0.955556
vt 0.510417 0.955556
vt 0.520833 0.955556
vt 0.531250 0.955556
vt 0.541667 0.955556
vt 0.552083 0.955556
vt 0.562500 0.955556
vt 0.572917 0.955556
vt 0.583333 0.955556
vt 0.593750 0.955556
vt 0.604167 0.955556
vt 0.614583 0.955556
vt 0.625000 0.955556
vt 0.635417 0.955556
vt 0.645833 0.955556
vt 0.656250 0.955556
vt 0.666667 0.955556
vt 0.677083 0.955556
vt 0.687500 0.955556
vt 0.697917 0.955556
vt 0.708333 0.955556
vt 0.718750 0.955556
vt 0.729167 0.955556
vt 0.739583 0.955556
vt 0.750000 0.955556
vt 0.760417 0.955556
vt 0.770833 0.955556
vt 0.781250 0.955556
vt 0.791667 0.955556
vt 0.802083 0.955556
vt 0.812500 0.955556
vt 0.822917 0.955556
vt 0.833333 0.955556
vt 0.843750 0.955556
vt 0.854167 0.955556
vt 0.864583 0.955556
vt 0.875000 0.955556
vt 0.885417 0.955556
vt 0.895833 0.955556
vt 0.906250 0.955556
vt 0.916667 0.955556
vt 0.927083 0.955556
vt 0.937500 0.955556
vt 0.947917 0.955556
vt 0.958333 0.955556
vt 0.968750 0.955556
vt 0.979167 0.955556
vt 0.989583 0.955556
vt 1.000000 0.955556
vt 0.000000 1.000000
vt 0.010417 1.000000
vt 0.020833 1.000000
vt 0.031250 1.000000
vt 0.041667 1.000000
vt 0.052083 1.000000
vt 0.062500 1.000000
vt 0.072917 1.000000
vt 0.083333 1.000000
vt 0.093750 1.000000
vt 0.104167 1.000000
vt 0.114583 1.000000
vt 0.125000 1.000000
vt 0.135417 1.000000
vt 0.145833 1.000000
vt 0.156250 1.000000
vt 0.166667 1.000000
vt 0.177083 1.000000
vt 0.187500 1.000000
vt 0.197917 1.000000
vt 0.208333 1.000000
vt 0.218750 1.000000
vt 0.229167 1.000000
vt 0.239583 1.000000
vt 0.250000 1.000000
vt 0.260417 1.000000
vt 0.270833 1.000000
vt 0.281250 1.000000
vt 0.291667 1.000000
vt 0.302083 1.000000
vt 0.312500 1.000000
vt 0.322917 1.000000
vt 0.333333 1.000000
vt 0.343750 1.000000
vt 0.354167 1.000000
vt 0.364583 1.000000
vt 0.375000 1.000000
vt 0.385417 1.000000
vt 0.395833 1.000000
vt 0.406250 1.000000
vt 0.416667 1.000000
vt 0.427083 1.000000
vt 0.437500 1.000000
vt 0.447917 1.000000
vt 0.458333 1.000000
vt 0.468750 1.000000
vt 0.479167 1.000000
vt 0.489583 1.000000
vt 0.500000 1.000000
vt 0.510417 1.000000
vt 0.520833 1.000000
vt 0.531250 1.000000
vt 0.541667 1.000000
vt 0.552083 1.000000
vt 0.562500 1.000000
vt 0.572917 1.000000
vt 0.583333 1.000000
vt 0.593750 1.000000
vt 0.604167 1.000000
vt 0.614583 1.000000
vt 0.625000 1.000000
vt 0.635417 1.000000
vt 0.645833 1.000000
vt 0.656250 1.000000
vt 0.666667 1.000000
vt 0.677083 1.000000
vt 0.687500 1.000000
vt 0.697917 1.000000
vt 0.708333 1.000000
vt 0.718750 1.000000
vt 0.729167 1.000000
vt 0.739583 1.000000
vt 0.750000 1.000000
vt 0.760417 1.000000
vt 0.770833 1.000000
vt 0.781250 1.000000
vt 0.791667 1.000000
vt 0.802083 1.000000
vt 0.812500 1.000000
vt 0.822917 1.000000
vt 0.833333 1.000000
vt 0.843750 1.000000
vt 0.854167 1.000000
vt 0.864583 1.000000
vt 0.875000 1.000000
vt 0.885417 1.000000
vt 0.895833 1.000000
vt 0.906250 1.000000
vt 0.916667 1.000000
vt 0.927083 1.000000
vt 0.937500 1.000000
vt 0.947917 1.000000
vt 0.958333 1.000000
vt 0.968750 1.000000
vt 0.979167 1.000000
vt 0.989583 1.000000
vt 1.000000 1.000000
vt 0.500000 0.500000
vt 1.000000 0.500000
vt 0.998929 0.532702
vt 0.995722 0.565263
vt 0.990393 0.597545
vt 0.982963 0.629410
vt 0.973465 0.660720
vt 0.961940 0.691342
vt 0.948436 0.721144
vt 0.933013 0.750000
vt 0.915735 0.777785
vt 0.896677 0.804381
vt 0.875920 0.829673
vt 0.853553 0.853553
vt 0.829673 0.875920
vt 0.804381 0.896677
vt 0.777785 0.915735
vt 0.750000 0.933013
vt 0.721144 0.948436
vt 0.691342 0.961940
vt 0.660720 0.973465
vt 0.629410 0.982963
vt 0.597545 0.990393
vt 0.565263 0.995722
vt 0.532702 0.998929
vt 0.500000 1.000000
vt 0.467298 0.998929
vt 0.434737 0.995722
vt 0.402455 0.990393
vt 0.370590 0.982963
vt 0.339280 0.973465
vt 0.308658 0.961940
vt 0.278856 0.948436
vt 0.250000 0.933013
vt 0.222215 0.915735
vt 0.195619 0.896677
vt 0.170327 0.875920
vt 0.146447 0.853553
vt 0.124080 0.829673
vt 0.103323 0.804381
vt 0.084265 0.777785
vt 0.066987 0.750000
vt 0.051564 0.721144
vt 0.038060 0.691342
vt 0.026535 0.660720
vt 0.017037 0.629410
vt 0.009607 0.597545
vt 0.004278 0.565263
vt 0.001071 0.532702
vt 0.000000 0.500000
vt 0.001071 0.467298
vt 0.004278 0.434737
vt 0.009607 0.402455
vt 0.017037 0.370590
vt 0.026535 0.339280
vt 0.038060 0.308658
vt 0.051564 0.278856
vt 0.066987 0.250000
vt 0.084265 0.222215
vt 0.103323 0.195619
vt 0.124080 0.170327
vt 0.146447 0.146447
vt 0.170327 0.124080
vt 0.195619 0.103323
vt 0.222215 0.084265
vt 0.250000 0.066987
vt 0.278856 0.051564
vt 0.308658 0.038060
vt 0.339280 0.026535
vt 0.370590 0.017037
vt 0.402455 0.009607
vt 0.434737 0.004278
vt 0.467298 0.001071
vt 0.500000 0.000000
vt 0.532702 0.001071
vt 0.565263 0.004278
vt 0.597545 0.009607
vt 0.629410 0.017037
vt 0.660720 0.026535
vt 0.691342 0.038060
vt 0.721144 0.051564
vt 0.750000 0.066987
vt 0.777785 0.084265
vt 0.804381 0.103323
vt 0.829673 0.124080
vt 0.853553 0.146447
vt 0.875920 0.170327
vt 0.896677 0.195619
vt 0.915735 0.222215
vt 0.933013 0.250000
vt 0.948436 0.278856
vt 0.961940 0.308658
vt 0.973465 0.339280
vt 0.982963 0.370590
vt 0.990393 0.402455
vt 0.995722 0.434737
vt 0.998929 0.467298
vt 0.500000 0.500000
vt 1.000000 0.500000
vt 0.998929 0.532702
vt 0.995722 0.565263
vt 0.990393 0.597545
vt 0.982963 0.629410
vt 0.973465 0.660720
vt 0.961940 0.691342
vt 0.948436 0.721144
vt 0.933013 0.750000
vt 0.915735 0.777785
vt 0.896677 0.804381
vt 0.875920 0.829673
vt 0.853553 0.853553
vt 0.829673 0.875920
vt 0.804381 0.896677
vt 0.777785 0.915735
vt 0.750000 0.933013
vt 0.721144 0.948436
vt 0.691342 0.961940
vt 0.660720 0.973465
vt 0.629410 0.982963
vt 0.597545 0.990393
vt 0.565263 0.995722
vt 0.532702 0.998929
vt 0.500000 1.000000
vt 0.467298 0.998929
vt 0.434737 0.995722
vt 0.402455 0.990393
vt 0.370590 0.982963
vt 0.339280 0.973465
vt 0.308658 0.961940
vt 0.278856 0.948436
vt 0.250000 0.933013
vt 0.222215 0.915735
vt 0.195619 0.896677
vt 0.170327 0.875920
vt 0.146447 0.853553
vt 0.124080 0.829673
vt 0.103323 0.804381
vt 0.084265 0.777785
vt 0.066987 0.750000
vt 0.051564 0.721144
vt 0.038060 0.691342
vt 0.026535 0.660720
vt 0.017037 0.629410
vt 0.009607 0.597545
vt 0.004278 0.565263
vt 0.001071 0.532702
vt 0.000000 0.500000
vt 0.001071 0.467298
vt 0.004278 0.434737
vt 0.009607 0.402455
vt 0.017037 0.370590
vt 0.026535 0.339280
vt 0.038060 0.308658
vt 0.051564 0.278856
vt 0.066987 0.250000
vt 0.084265 0.222215
vt 0.103323 0.195619
vt 0.124080 0.170327
vt 0.146447 0.146447
vt 0.170327 0.124080
vt 0.195619 0.103323
vt 0.222215 0.084265
vt 0.250000 0.066987
vt 0.278856 0.051564
vt 0.308658 0.038060
vt 0.339280 0.026535
vt 0.370590 0.017037
vt 0.402455 0.009607
vt 0.434737 0.004278
vt 0.467298 0.001071
vt 0.500000 0.000000
vt 0.532702 0.001071
vt 0.565263 0.004278
vt 0.597545 0.009607
vt 0.629410 0.017037
vt 0.660720 0.026535
vt 0.691342 0.038060
vt 0.721144 0.051564
vt 0.750000 0.066987
vt 0.777785 0.084265
vt 0.804381 0.103323
vt 0.829673 0.124080
vt 0.853553 0.146447
vt 0.875920 0.170327
vt 0.896677 0.195619
vt 0.915735 0.222215
vt 0.933013 0.250000
vt 0.948436 0.278856
vt 0.961940 0.308658
vt 0.973465 0.339280
vt 0.982963 0.370590
vt 0.990393 0.402455
vt 0.995722 0.434737
vt 0.998929 0.467298
vn 1.000000 0.000000 -0.000000
vn 0.997859 0.000000 -0.065403
vn 0.991445 0.000000 -0.130526
vn 0.980785 0.000000 -0.195090
vn 0.965926 0.000000 -0.258819
vn 0.946930 0.000000 -0.321439
vn 0.923880 0.000000 -0.382683
vn 0.896873 0.000000 -0.442289
vn 0.866025 0.000000 -0.500000
vn 0.831470 0.000000 -0.555570
vn 0.793353 0.000000 -0.608761
vn 0.751840 0.000000 -0.659346
vn 0.707107 0.000000 -0.707107
vn 0.659346 0.000000 -0.751840
vn 0.608761 0.000000 -0.793353
vn 0.555570 0.000000 -0.831470
vn 0.500000 0.000000 -0.866025
vn 0.442289 0.000000 -0.896873
vn 0.382683 0.000000 -0.923880
vn 0.321439 0.000000 -0.946930
vn 0.258819 0.000000 -0.965926
vn 0.195090 0.000000 -0.980785
vn 0.130526 0.000000 -0.991445
vn 0.065403 0.000000 -0.997859
vn 0.000000 0.000000 -1.000000
vn -0.065403 0.000000 -0.997859
vn -0.130526 0.000000 -0.991445
vn -0.195090 0.000000 -0.980785
vn -0.258819 0.000000 -0.965926
vn -0.321439 0.000000 -0.946930
vn -0.382683 0.000000 -0.923880
vn -0.442289 0.000000 -0.896873
vn -0.500000 0.000000 -0.866025
vn -0.555570 0.000000 -0.831470
vn -0.608761 0.000000 -0.793353
vn -0.659346 0.000000 -0.751840
vn -0.707107 0.000000 -0.707107
vn -0.751840 0.000000 -0.659346
vn -0.793353 0.000000 -0.608761
vn -0.831470 0.000000 -0.555570
vn -0.866025 0.000000 -0.500000
vn -0.896873 0.000000 -0.442289
vn -0.923880 0.000000 -0.382683
vn -0.946930 0.000000 -0.321439
vn -0.965926 0.000000 -0.258819
vn -0.980785 0.000000 -0.195090
vn -0.991445 0.000000 -0.130526
vn -0.997859 0.000000 -0.065403
vn -1.000000 0.000000 -0.000000
vn -0.997859 0.000000 0.065403
vn -0.991445 0.000000 0.130526
vn -0.980785 0.000000 0.195090
vn -0.965926 0.000000 0.258819
vn -0.946930 0.000000 0.321439
vn -0.923880 0.000000 0.382683
vn -0.896873 0.000000 0.442289
vn -0.866025 0.000000 0.500000
vn -0.831470 0.000000 0.555570
vn -0.793353 0.000000 0.608761
vn -0.751840 0.000000 0.659346
vn -0.707107 0.000000 0.707107
vn -0.659346 0.000000 0.751840
vn -0.608761 0.000000 0.793353
vn -0.555570 0.000000 0.831470
vn -0.500000 0.000000 0.866025
vn -0.442289 0.000000 0.896873
vn -0.382683 0.000000 0.923880
vn -0.321439 0.000000 0.946930
vn -0.258819 0.000000 0.965926
vn -0.195090 0.000000 0.980785
vn -0.130526 0.000000 0.991445
vn -0.065403 0.000000 0.997859
vn -0.000000 0.000000 1.000000
vn 0.065403 0.000000 0.997859
vn 0.130526 0.000000 0.991445
vn 0.195090 0.000000 0.980785
vn 0.258819 0.000000 0.965926
vn 0.321439 0.000000 0.946930
vn 0.382683 0.000000 0.923880
vn 0.442289 0.000000 0.896873
vn 0.500000 0.000000 0.866025
vn 0.555570 0.000000 0.831470
vn 0.608761 0.000000 0.793353
vn 0.659346 0.000000 0.751840
vn 0.707107 0.000000 0.707107
vn 0.751840 0.000000 0.659346
vn 0.793353 0.000000 0.608761
vn 0.831470 0.000000 0.555570
vn 0.866025 0.000000 0.500000
vn 0.896873 0.000000 0.442289
vn 0.923880 0.000000 0.382683
vn 0.946930 0.000000 0.321439
vn 0.965926 0.000000 0.258819
vn 0.980785 0.000000 0.195090
vn 0.991445 0.000000 0.130526
vn 0.997859 0.000000 0.065403
vn 1.000000 0.000000 0.000000
vn 1.000000 0.000000 -0.000000
vn 0.997859 0.000000 -0.065403
vn 0.991445 0.000000 -0.130526
vn 0.980785 0.000000 -0.195090
vn 0.965926 0.000000 -0.258819
vn 0.946930 0.000000 -0.321439
vn 0.923880 0.000000 -0.382683
vn 0.896873 0.000000 -0.442289
vn 0.866025 0.000000 -0.500000
vn 0.831470 0.000000 -0.555570
vn 0.793353 0.000000 -0.608761
vn 0.751840 0.000000 -0.659346
vn 0.707107 0.000000 -0.707107
vn 0.659346 0.000000 -0.751840
vn 0.608761 0.000000 -0.793353
vn 0.555570 0.000000 -0.831470
vn 0.500000 0.000000 -0.866025
vn 0.442289 0.000000 -0.896873
vn 0.382683 0.000000 -0.923880
vn 0.321439 0.000000 -0.946930
vn 0.258819 0.000000 -0.965926
vn 0.195090 0.000000 -0.980785
vn 0.130526 0.000000 -0.991445
vn 0.065403 0.000000 -0.997859
vn 0.000000 0.000000 -1.000000
vn -0.065403 0.000000 -0.997859
vn -0.130526 0.000000 -0.991445
vn -0.195090 0.000000 -0.980785
vn -0.258819 0.000000 -0.965926
vn -0.321439 0.000000 -0.946930
vn -0.382683 0.000000 -0.923880
vn -0.442289 0.000000 -0.896873
vn -0.500000 0.000000 -0.866025
vn -0.555570 0.000000 -0.831470
vn -0.608761 0.000000 -0.793353
vn -0.659346 0.000000 -0.751840
vn -0.707107 0.000000 -0.707107
vn -0.751840 0.000000 -0.659346
vn -0.793353 0.000000 -0.608761
vn -0.831470 0.000000 -0.555570
vn -0.866025 0.000000 -0.500000
vn -0.896873 0.000000 -0.442289
vn -0.923880 0.000000 -0.382683
vn -0.946930 0.000000 -0.321439
vn -0.965926 0.000000 -0.258819
vn -0.980785 0.000000 -0.195090
vn -0.991445 0.000000 -0.130526
vn -0.997859 0.000000 -0.065403
vn -1.000000 0.000000 -0.000000
vn -0.997859 0.000000 0.065403
vn -0.991445 0.000000 0.130526
vn -0.980785 0.000000 0.195090
vn -0.965926 0.000000 0.258819
vn -0.946930 0.000000 0.321439
vn -0.923880 0.000000 0.382683
vn -0.896873 0.000000 0.442289
vn -0.866025 0.000000 0.500000
vn -0.831470 0.000000 0.555570
vn -0.793353 0.000000 0.608761
vn -0.751840 0.000000 0.659346
vn -0.707107 0.000000 0.707107
vn -0.659346 0.000000 0.751840
vn -0.608761 0.000000 0.793353
vn -0.555570 0.000000 0.831470
vn -0.500000 0.000000 0.866025
vn -0.442289 0.000000 0.896873
vn -0.382683 0.000000 0.923880
vn -0.321439 0.000000 0.946930
vn -0.258819 0.000000 0.965926
vn -0.195090 0.000000 0.980785
vn -0.130526 0.000000 0.991445
vn -0.065403 0.000000 0.997859
vn -0.000000 0.000000 1.000000
vn 0.065403 0.000000 0.997859
vn 0.130526 0.000000 0.991445
vn 0.195090 0.000000 0.980785
vn 0.258819 0.000000 0.965926
vn 0.321439 0.000000 0.946930
vn 0.382683 0.000000 0.923880
vn 0.442289 0.000000 0.896873
vn 0.500000 0.000000 0.866025
vn 0.555570 0.000000 0.831470
vn 0.608761 0.000000 0.793353
vn 0.659346 0.000000 0.751840
vn 0.707107 0.000000 0.707107
vn 0.751840 0.000000 0.659346
vn 0.793353 0.000000 0.608761
vn 0.831470 0.000000 0.555570
vn 0.866025 0.000000 0.500000
vn 0.896873 0.000000 0.442289
vn 0.923880 0.000000 0.382683
vn 0.946930 0.000000 0.321439
vn 0.965926 0.000000 0.258819
vn 0.980785 0.000000 0.195090
vn 0.991445 0.000000 0.130526
vn 0.997859 0.000000 0.065403
vn 1.000000 0.000000 0.000000
vn 0.707107 0.707107 -0.000000
vn 0.705593 0.707107 -0.046247
vn 0.701057 0.707107 -0.092296
vn 0.693520 0.707107 -0.137950
vn 0.683013 0.707107 -0.183013
vn 0.669581 0.707107 -0.227292
vn 0.653281 0.707107 -0.270598
vn 0.634185 0.707107 -0.312745
vn 0.612372 0.707107 -0.353553
vn 0.587938 0.707107 -0.392847
vn 0.560986 0.707107 -0.430459
vn 0.531631 0.707107 -0.466228
vn 0.500000 0.707107 -0.500000
vn 0.466228 0.707107 -0.531631
vn 0.430459 0.707107 -0.560986
vn 0.392847 0.707107 -0.587938
vn 0.353553 0.707107 -0.612372
vn 0.312745 0.707107 -0.634185
vn 0.270598 0.707107 -0.653281
vn 0.227292 0.707107 -0.669581
vn 0.183013 0.707107 -0.683013
vn 0.137950 0.707107 -0.693520
vn 0.092296 0.707107 -0.701057
vn 0.046247 0.707107 -0.705593
vn 0.000000 0.707107 -0.707107
vn -0.046247 0.707107 -0.705593
vn -0.092296 0.707107 -0.701057
vn -0.137950 0.707107 -0.693520
vn -0.183013 0.707107 -0.683013
vn -0.227292 0.707107 -0.669581
vn -0.270598 0.707107 -0.653281
vn -0.312745 0.707107 -0.634185
vn -0.353553 0.707107 -0.612372
vn -0.392847 0.707107 -0.587938
vn -0.430459 0.707107 -0.560986
vn -0.466228 0.707107 -0.531631
vn -0.500000 0.707107 -0.500000
vn -0.531631 0.707107 -0.466228
vn -0.560986 0.707107 -0.430459
vn -0.587938 0.707107 -0.392847
vn -0.612372 0.707107 -0.353553
vn -0.634185 0.707107 -0.312745
vn -0.653281 0.707107 -0.270598
vn -0.669581 0.707107 -0.227292
vn -0.683013 0.707107 -0.183013
vn -0.693520 0.707107 -0.137950
vn -0.701057 0.707107 -0.092296
vn -0.705593 0.707107 -0.046247
vn -0.707107 0.707107 -0.000000
vn -0.705593 0.707107 0.046247
vn -0.701057 0.707107 0.092296
vn -0.693520 0.707107 0.137950
vn -0.683013 0.707107 0.183013
vn -0.669581 0.707107 0.227292
vn -0.653281 0.707107 0.270598
vn -0.634185 0.707107 0.312745
vn -0.612372 0.707107 0.353553
vn -0.587938 0.707107 0.392847
vn -0.560986 0.707107 0.430459
vn -0.531631 0.707107 0.466228
vn -0.500000 0.707107 0.500000
vn -0.466228 0.707107 0.531631
vn -0.430459 0.707107 0.560986
vn -0.392847 0.707107 0.587938
vn -0.353553 0.707107 0.612372
vn -0.312745 0.707107 0.634185
vn -0.270598 0.707107 0.653281
vn -0.227292 0.707107 0.669581
vn -0.183013 0.707107 0.683013
vn -0.137950 0.707107 0.693520
vn -0.092296 0.707107 0.701057
vn -0.046247 0.707107 0.705593
vn -0.000000 0.707107 0.707107
vn 0.046247 0.707107 0.705593
vn 0.092296 0.707107 0.701057
vn 0.137950 0.707107 0.693520
vn 0.183013 0.707107 0.683013
vn 0.227292 0.707107 0.669581
vn 0.270598 0.707107 0.653281
vn 0.312745 0.707107 0.634185
vn 0.353553 0.707107 0.612372
vn 0.392847 0.707107 0.587938
vn 0.430459 0.707107 0.560986
vn 0.466228 0.707107 0.531631
vn 0.500000 0.707107 0.500000
vn 0.531631 0.707107 0.466228
vn 0.560986 0.707107 0.430459
vn 0.587938 0.707107 0.392847
vn 0.612372 0.707107 0.353553
vn 0.634185 0.707107 0.312745
vn 0.653281 0.707107 0.270598
vn 0.669581 0.707107 0.227292
vn 0.683013 0.707107 0.183013
vn 0.693520 0.707107 0.137950
vn 0.701057 0.707107 0.092296
vn 0.705593 0.707107 0.046247
vn 0.707107 0.707107 0.000000
vn 0.707107 0.707107 -0.000000
vn 0.705593 0.707107 -0.046247
vn 0.701057 0.707107 -0.092296
vn 0.693520 0.707107 -0.137950
vn 0.683013 0.707107 -0.183013
vn 0.669581 0.707107 -0.227292
vn 0.653281 0.707107 -0.270598
vn 0.634185 0.707107 -0.312745
vn 0.612372 0.707107 -0.353553
vn 0.587938 0.707107 -0.392847
vn 0.560986 0.707107 -0.430459
vn 0.531631 0.707107 -0.466228
vn 0.500000 0.707107 -0.500000
vn 0.466228 0.707107 -0.531631
vn 0.430459 0.707107 -0.560986
vn 0.392847 0.707107 -0.587938
vn 0.353553 0.707107 -0.612372
vn 0.312745 0.707107 -0.634185
vn 0.270598 0.707107 -0.653281
vn 0.227292 0.707107 -0.669581
vn 0.183013 0.707107 -0.683013
vn 0.137950 0.707107 -0.693520
vn 0.092296 0.707107 -0.701057
vn 0.046247 0.707107 -0.705593
vn 0.000000 0.707107 -0.707107
vn -0.046247 0.707107 -0.705593
vn -0.092296 0.707107 -0.701057
vn -0.137950 0.707107 -0.693520
vn -0.183013 0.707107 -0.683013
vn -0.227292 0.707107 -0.669581
vn -0.270598 0.707107 -0.653281
vn -0.312745 0.707107 -0.634185
vn -0.353553 0.707107 -0.612372
vn -0.392847 0.707107 -0.587938
vn -0.430459 0.707107 -0.560986
vn -0.466228 0.707107 -0.531631
vn -0.500000 0.707107 -0.500000
vn -0.531631 0.707107 -0.466228
vn -0.560986 0.707107 -0.430459
vn -0.587938 0.707107 -0.392847
vn -0.612372 0.707107 -0.353553
vn -0.634185 0.707107 -0.312745
vn -0.653281 0.707107 -0.270598
vn -0.669581 0.707107 -0.227292
vn -0.683013 0.707107 -0.183013
vn -0.693520 0.707107 -0.137950
vn -0.701057 0.707107 -0.092296
vn -0.705593 0.707107 -0.046247
vn -0.707107 0.707107 -0.000000
vn -0.705593 0.707107 0.046247
vn -0.701057 0.707107 0.092296
vn -0.693520 0.707107 0.137950
vn -0.683013 0.707107 0.183013
vn -0.669581 0.707107 0.227292
vn -0.653281 0.707107 0.270598
vn -0.634185 0.707107 0.312745
vn -0.612372 0.707107 0.353553
vn -0.587938 0.707107 0.392847
vn -0.560986 0.707107 0.430459
vn -0.531631 0.707107 0.466228
vn -0.500000 0.707107 0.500000
vn -0.466228 0.707107 0.531631
vn -0.430459 0.707107 0.560986
vn -0.392847 0.707107 0.587938
vn -0.353553 0.707107 0.612372
vn -0.312745 0.707107 0.634185
vn -0.270598 0.707107 0.653281
vn -0.227292 0.707107 0.669581
vn -0.183013 0.707107 0.683013
vn -0.137950 0.707107 0.693520
vn -0.092296 0.707107 0.701057
vn -0.046247 0.707107 0.705593
vn -0.000000 0.707107 0.707107
vn 0.046247 0.707107 0.705593
vn 0.092296 0.707107 0.701057
vn 0.137950 0.707107 0.693520
vn 0.183013 0.707107 0.683013
vn 0.227292 0.707107 0.669581
vn 0.270598 0.707107 0.653281
vn 0.312745 0.707107 0.634185
vn 0.353553 0.707107 0.612372
vn 0.392847 0.707107 0.587938
vn 0.430459 0.707107 0.560986
vn 0.466228 0.707107 0.531631
vn 0.500000 0.707107 0.500000
vn 0.531631 0.707107 0.466228
vn 0.560986 0.707107 0.430459
vn 0.587938 0.707107 0.392847
vn 0.612372 0.707107 0.353553
vn 0.634185 0.707107 0.312745
vn 0.653281 0.707107 0.270598
vn 0.669581 0.707107 0.227292
vn 0.683013 0.707107 0.183013
vn 0.693520 0.707107 0.137950
vn 0.701057 0.707107 0.092296
vn 0.705593 0.707107 0.046247
vn 0.707107 0.707107 0.000000
vn 0.000000 1.000000 0.000000
vn 0.000000 1.000000 0.000000
vn 0.000000 1.000000 0.000000
vn 0.000000 1.000000 0.000000
vn 0.000000 1.000000 0.000000
vn 0.000000 1.000000 0.000000
vn 0.000000 1.000000 0.000000
vn 0.000000 1.000000 0.000000
vn 0.000000 1.000000 0.000000
vn 0.000000 1.000000 0.000000
vn 0.000000 1.000000 0.000000
vn 0.000000 1.000000 0.000000
vn 0.000000 1.000000 0.000000
vn 0.000000 1.000000 0.000000
vn 0.000000 1.000000 0.000000
vn 0.000000 1.000000 0.000000
vn 0.000000 1.000000 0.000000
vn 0.000000 1.000000 0.000000
vn 0.000000 1.000000 0.000000
vn 0.000000 1.000000 0.000000
vn 0.000000 1.000000 0.000000
vn 0.000000 1.000000 0.000000
vn 0.000000 1.000000 0.000000
vn 0.000000 1.000000 0.000000
vn 0.000000 1.000000 0.000000
vn 0.000000 1.000000 0.000000
vn 0.000000 1.000000 0.000000
vn 0.000000 1.000000 0.000000
vn 0.000000 1.000000 0.000000
vn 0.000000 1.000000 0.000000
vn 0.000000 1.000000 0.000000
vn 0.000000 1.000000 0.000000
vn 0.000000 1.000000 0.000000
vn 0.000000 1.000000 0.000000
vn 0.000000 1.000000 0.000000
vn 0.000000 1.000000 0.000000
vn 0.000000 1.000000 0.000000
vn 0.000000 1.000000 0.000000
vn 0.000000 1.000000 0.000000
vn 0.000000 1.000000 0.000000
vn 0.000000 1.000000 0.000000
vn 0.000000 1.000000 0.000000
vn 0.000000 1.000000 0.000000
vn 0.000000 1.000000 0.000000
vn 0.000000 1.000000 0.000000
vn 0.000000 1.000000 0.000000
vn 0.000000 1.000000 0.000000
vn 0.000000 1.000000 0.000000
vn 0.000000 1.000000 0.000000
vn 0.000000 1.000000 0.000000
vn 0.000000 1.000000 0.000000
vn 0.000000 1.000000 0.000000
vn 0.000000 1.000000 0.000000
vn 0.000000 1.000000 0.000000
vn 0.000000 1.000000 0.000000
vn 0.000000 1.000000 0.000000
vn 0.000000 1.000000 0.000000
vn 0.000000 1.000000 0.000000
vn 0.000000 1.000000 0.000000
vn 0.000000 1.000000 0.000000
vn 0.000000 1.000000 0.000000
vn 0.000000 1.000000 0.000000
vn 0.000000 1.000000 0.000000
vn 0.000000 1.000000 0.000000
vn 0.000000 1.000000 0.000000
vn 0.000000 1.000000 0.000000
vn 0.000000 1.000000 0.000000
vn 0.000000 1.000000 0.000000
vn 0.000000 1.000000 0.000000
vn 0.000000 1.000000 0.000000
vn 0.000000 1.000000 0.000000
vn 0.000000 1.000000 0.000000
vn 0.000000 1.000000 0.000000
vn 0.000000 1.000000 0.000000
vn 0.000000 1.000000 0.000000
vn 0.000000 1.000000 0.000000
vn 0.000000 1.000000 0.000000
vn 0.000000 1.000000 0.000000
vn 0.000000 1.000000 0.000000
vn 0.000000 1.000000 0.000000
vn 0.000000 1.000000 0.000000
vn 0.000000 1.000000 0.000000
vn 0.000000 1.000000 0.000000
vn 0.000000 1.000000 0.000000
vn 0.000000 1.000000 0.000000
vn 0.000000 1.000000 0.000000
vn 0.000000 1.000000 0.000000
vn 0.000000 1.000000 0.000000
vn 0.000000 1.000000 0.000000
vn 0.000000 1.000000 0.000000
vn 0.000000 1.000000 0.000000
vn 0.000000 1.000000 0.000000
vn 0.000000 1.000000 0.000000
vn 0.000000 1.000000 0.000000
vn 0.000000 1.000000 0.000000
vn 0.000000 1.000000 0.000000
vn 0.000000 1.000000 0.000000
vn 0.000000 -1.000000 0.000000
vn 0.000000 -1.000000 0.000000
vn 0.000000 -1.000000 0.000000
vn 0.000000 -1.000000 0.000000
vn 0.000000 -1.000000 0.000000
vn 0.000000 -1.000000 0.000000
vn 0.000000 -1.000000 0.000000
vn 0.000000 -1.000000 0.000000
vn 0.000000 -1.000000 0.000000
vn 0.000000 -1.000000 0.000000
vn 0.000000 -1.000000 0.000000
vn 0.000000 -1.000000 0.000000
vn 0.000000 -1.000000 0.000000
vn 0.000000 -1.000000 0.000000
vn 0.000000 -1.000000 0.000000
vn 0.000000 -1.000000 0.000000
vn 0.000000 -1.000000 0.000000
vn 0.000000 -1.000000 0.000000
vn 0.000000 -1.000000 0.000000
vn 0.000000 -1.000000 0.000000
vn 0.000000 -1.000000 0.000000
vn 0.000000 -1.000000 0.000000
vn 0.000000 -1.000000 0.000000
vn 0.000000 -1.000000 0.000000
vn 0.000000 -1.000000 0.000000
vn 0.000000 -1.000000 0.000000
vn 0.000000 -1.000000 0.000000
vn 0.000000 -1.000000 0.000000
vn 0.000000 -1.000000 0.000000
vn 0.000000 -1.000000 0.000000
vn 0.000000 -1.000000 0.000000
vn 0.000000 -1.000000 0.000000
vn 0.000000 -1.000000 0.000000
vn 0.000000 -1.000000 0.000000
vn 0.000000 -1.000000 0.000000
vn 0.000000 -1.000000 0.000000
vn 0.000000 -1.000000 0.000000
vn 0.000000 -1.000000 0.000000
vn 0.000000 -1.000000 0.000000
vn 0.000000 -1.000000 0.000000
vn 0.000000 -1.000000 0.000000
vn 0.000000 -1.000000 0.000000
vn 0.000000 -1.000000 0.000000
vn 0.000000 -1.000000 0.000000
vn 0.000000 -1.000000 0.000000
vn 0.000000 -1.000000 0.000000
vn 0.000000 -1.000000 0.000000
vn 0.000000 -1.000000 0.000000
vn 0.000000 -1.000000 0.000000
vn 0.000000 -1.000000 0.000000
vn 0.000000 -1.000000 0.000000
vn 0.000000 -1.000000 0.000000
vn 0.000000 -1.000000 0.000000
vn 0.000000 -1.000000 0.000000
vn 0.000000 -1.000000 0.000000
vn 0.000000 -1.000000 0.000000
vn 0.000000 -1.000000 0.000000
vn 0.000000 -1.000000 0.000000
vn 0.000000 -1.000000 0.000000
vn 0.000000 -1.000000 0.000000
vn 0.000000 -1.000000 0.000000
vn 0.000000 -1.000000 0.000000
vn 0.000000 -1.000000 0.000000
vn 0.000000 -1.000000 0.000000
vn 0.000000 -1.000000 0.000000
vn 0.000000 -1.000000 0.000000
vn 0.000000 -1.000000 0.000000
vn 0.000000 -1.000000 0.000000
vn 0.000000 -1.000000 0.000000
vn 0.000000 -1.000000 0.000000
vn 0.000000 -1.000000 0.000000
vn 0.000000 -1.000000 0.000000
vn 0.000000 -1.000000 0.000000
vn 0.000000 -1.000000 0.000000
vn 0.000000 -1.000000 0.000000
vn 0.000000 -1.000000 0.000000
vn 0.000000 -1.000000 0.000000
vn 0.000000 -1.000000 0.000000
vn 0.000000 -1.000000 0.000000
vn 0.000000 -1.000000 0.000000
vn 0.000000 -1.000000 0.000000
vn 0.000000 -1.000000 0.000000
vn 0.000000 -1.000000 0.000000
vn 0.000000 -1.000000 0.000000
vn 0.000000 -1.000000 0.000000
vn 0.000000 -1.000000 0.000000
vn 0.000000 -1.000000 0.000000
vn 0.000000 -1.000000 0.000000
vn 0.000000 -1.000000 0.000000
vn 0.000000 -1.000000 0.000000
vn 0.000000 -1.000000 0.000000
vn 0.000000 -1.000000 0.000000
vn 0.000000 -1.000000 0.000000
vn 0.000000 -1.000000 0.000000
vn 0.000000 -1.000000 0.000000
vn 0.000000 -1.000000 0.000000
vn 0.000000 -1.000000 0.000000
f 1/1/1 2/2/2 99/99/99
f 1/1/1 99/99/99 98/98/98
f 2/2/2 3/3/3 100/100/100
f 2/2/2 100/100/100 99/99/99
f 3/3/3 4/4/4 101/101/101
f 3/3/3 101/101/101 100/100/100
f 4/4/4 5/5/5 102/102/102
f 4/4/4 102/102/102 101/101/101
f 5/5/5 6/6/6 103/103/103
f 5/5/5 103/103/103 102/102/102
f 6/6/6 7/7/7 104/104/104
f 6/6/6 104/104/104 103/103/103
f 7/7/7 8/8/8 105/105/105
f 7/7/7 105/105/105 104/104/104
f 8/8/8 9/9/9 106/106/106
f 8/8/8 106/106/106 105/105/105
f 9/9/9 10/10/10 107/107/107
f 9/9/9 107/107/107 106/106/106
f 10/10/10 11/11/11 108/108/108
f 10/10/10 108/108/108 107/107/107
f 11/11/11 12/12/12 109/109/109
f 11/11/11 109/109/109 108/108/108
f 12/12/12 13/13/13 110/110/110
f 12/12/12 110/110/110 109/109/109
f 13/13/13 14/14/14 111/111/111
f 13/13/13 111/111/111 110/110/110
f 14/14/14 15/15/15 112/112/112
f 14/14/14 112/112/112 111/111/111
f 15/15/15 16/16/16 113/113/113
f 15/15/15 113/113/113 112/112/112
f 16/16/16 17/17/17 114/114/114
f 16/16/16 114/114/114 113/113/113
f 17/17/17 18/18/18 115/115/115
f 17/17/17 115/115/115 114/114/114
f 18/18/18 19/19/19 116/116/116
f 18/18/18 116/116/116 115/115/115
f 19/19/19 20/20/20 117/117/117
f 19/19/19 117/117/117 116/116/116
f 20/20/20 21/21/21 118/118/118
f 20/20/20 118/118/118 117/117/117
f 21/21/21 22/22/22 119/119/119
f 21/21/21 119/119/119 118/118/118
f 22/22/22 23/23/23 120/120/120
f 22/22/22 120/120/120 119/119/119
f 23/23/23 24/24/24 121/121/121
f 23/23/23 121/121/121 120/120/120
f 24/24/24 25/25/25 122/122/122
f 24/24/24 122/122/122 121/121/121
f 25/25/25 26/26/26 123/123/123
f 25/25/25 123/123/123 122/122/122
f 26/26/26 27/27/27 124/124/124
f 26/26/26 124/124/124 123/123/123
f 27/27/27 28/28/28 125/125/125
f 27/27/27 125/125/125 124/124/124
f 28/28/28 29/29/29 126/126/126
f 28/28/28 126/126/126 125/125/125
f 29/29/29 30/30/30 127/127/127
f 29/29/29 127/127/127 126/126/126
f 30/30/30 31/31/31 128/128/128
f 30/30/30 128/128/128 127/127/127
f 31/31/31 32/32/32 129/129/129
f 31/31/31 129/129/129 128/128/128
f 32/32/32 33/33/33 130/130/130
f 32/32/32 130/130/130 129/129/129
f 33/33/33 34/34/34 131/131/131
f 33/33/33 131/131/131 130/130/130
f 34/34/34 35/35/35 132/132/132
f 34/34/34 132/132/132 131/131/131
f 35/35/35 36/36/36 133/133/133
f 35/35/35 133/133/133 132/132/132
f 36/36/36 37/37/37 134/134/134
f 36/36/36 134/134/134 133/133/133
f 37/37/37 38/38/38 135/135/135
f 37/37/37 135/135/135 134/134/134
f 38/38/38 39/39/39 136/136/136
f 38/38/38 136/136/136 135/135/135
f 39/39/39 40/40/40 137/137/137
f 39/39/39 137/137/137 136/136/136
f 40/40/40 41/41/41 138/138/138
f 40/40/40 138/138/138 137/137/137
f 41/41/41 42/42/42 139/139/139
f 41/41/41 139/139/139 138/138/138
f 42/42/42 43/43/43 140/140/140
f 42/42/42 140/140/140 139/139/139
f 43/43/43 44/44/44 141/141/141
f 43/43/43 141/141/141 140/140/140
f 44/44/44 45/45/45 142/142/142
f 44/44/44 142/142/142 141/141/141
f 45/45/45 46/46/46 143/143/143
f 45/45/45 143/143/143 142/142/142
f 46/46/46 47/47/47 144/144/144
f 46/46/46 144/144/144 143/143/143
f 47/47/47 48/48/48 145/145/145
f 47/47/47 145/145/145 144/144/144
f 48/48/48 49/49/49 146/146/146
f 48/48/48 146/146/146 145/145/145
f 49/49/49 50/50/50 147/147/147
f 49/49/49 147/147/147 146/146/146
f 50/50/50 51/51/51 148/148/148
f 50/50/50 148/148/148 147/147/147
f 51/51/51 52/52/52 149/149/149
f 51/51/51 149/149/149 148/148/148
f 52/52/52 53/53/53 150/150/150
f 52/52/52 150/150/150 149/149/149
f 53/53/53 54/54/54 151/151/151
f 53/53/53 151/151/151 150/150/150
f 54/54/54 55/55/55 152/152/152
f 54/54/54 152/152/152 151/151/151
f 55/55/55 56/56/56 153/153/153
f 55/55/55 153/153/153 152/152/152
f 56/56/56 57/57/57 154/154/154
f 56/56/56 154/154/154 153/153/153
f 57/57/57 58/58/58 155/155/155
f 57/57/57 155/155/155 154/154/154
f 58/58/58 59/59/59 156/156/156
f 58/58/58 156/156/156 155/155/155
f 59/59/59 60/60/60 157/157/157
f 59/59/59 157/157/157 156/156/156
f 60/60/60 61/61/61 158/158/158
f 60/60/60 158/158/158 157/157/157
f 61/61/61 62/62/62 159/159/159
f 61/61/61 159/159/159 158/158/158
f 62/62/62 63/63/63 160/160/160
f 62/62/62 160/160/160 159/159/159
f 63/63/63 64/64/64 161/161/161
f 63/63/63 161/161/161 160/160/160
f 64/64/64 65/65/65 162/162/162
f 64/64/64 162/162/162 161/161/161
f 65/65/65 66/66/66 163/163/163
f 65/65/65 163/163/163 162/162/162
f 66/66/66 67/67/67 164/164/164
f 66/66/66 164/164/164 163/163/163
f 67/67/67 68/68/68 165/165/165
f 67/67/67 165/165/165 164/164/164
f 68/68/68 69/69/69 166/166/166
f 68/68/68 166/166/166 165/165/165
f 69/69/69 70/70/70 167/167/167
f 69/69/69 167/167/167 166/166/166
f 70/70/70 71/71/71 168/168/168
f 70/70/70 168/168/168 167/167/167
f 71/71/71 72/72/72 169/169/169
f 71/71/71 169/169/169 168/168/168
f 72/72/72 73/73/73 170/170/170
f 72/72/72 170/170/170 169/169/169
f 73/73/73 74/74/74 171/171/171
f 73/73/73 171/171/171 170/170/170
f 74/74/74 75/75/75 172/172/172
f 74/74/74 172/172/172 171/171/171
f 75/75/75 76/76/76 173/173/173
f 75/75/75 173/173/173 172/172/172
f 76/76/76 77/77/77 174/174/174
f 76/76/76 174/174/174 173/173/173
f 77/77/77 78/78/78 175/175/175
f 77/77/77 175/175/175 174/174/174
f 78/78/78 79/79/79 176/176/176
f 78/78/78 176/176/176 175/175/175
f 79/79/79 80/80/80 177/177/177
f 79/79/79 177/177/177 176/176/176
f 80/80/80 81/81/81 178/178/178
f 80/80/80 178/178/178 177/177/177
f 81/81/81 82/82/82 179/179/179
f 81/81/81 179/179/179 178/178/178
f 82/82/82 83/83/83 180/180/180
f 82/82/82 180/180/180 179/179/179
f 83/83/83 84/84/84 181/181/181
f 83/83/83 181/181/181 180/180/180
f 84/84/84 85/85/85 182/182/182
f 84/84/84 182/182/182 181/181/181
f 85/85/85 86/86/86 183/183/183
f 85/85/85 183/183/183 182/182/182
f 86/86/86 87/87/87 184/184/184
f 86/86/86 184/184/184 183/183/183
f 87/87/87 88/88/88 185/185/185
f 87/87/87 185/185/185 184/184/184
f 88/88/88 89/89/89 186/186/186
f 88/88/88 186/186/186 185/185/185
f 89/89/89 90/90/90 187/187/187
f 89/89/89 187/187/187 186/186/186
f 90/90/90 91/91/91 188/188/188
f 90/90/90 188/188/188 187/187/187
f 91/91/91 92/92/92 189/189/189
f 91/91/91 189/189/189 188/188/188
f 92/92/92 93/93/93 190/190/190
f 92/92/92 190/190/190 189/189/189
f 93/93/93 94/94/94 191/191/191
f 93/93/93 191/191/191 190/190/190
f 94/94/94 95/95/95 192/192/192
f 94/94/94 192/192/192 191/191/191
f 95/95/95 96/96/96 193/193/193
f 95/95/95 193/193/193 192/192/192
f 96/96/96 97/97/97 194/194/194
f 96/96/96 194/194/194 193/193/193
f 195/195/195 196/196/196 293/293/293
f 195/195/195 293/293/293 292/292/292
f 196/196/196 197/197/197 294/294/294
f 196/196/196 294/294/294 293/293/293
f 197/197/197 198/198/198 295/295/295
f 197/197/197 295/295/295 294/294/294
f 198/198/198 199/199/199 296/296/296
f 198/198/198 296/296/296 295/295/295
f 199/199/199 200/200/200 297/297/297
f 199/199/199 297/297/297 296/296/296
f 200/200/200 201/201/201 298/298/298
f 200/200/200 298/298/298 297/297/297
f 201/201/201 202/202/202 299/299/299
f 201/201/201 299/299/299 298/298/298
f 202/202/202 203/203/203 300/300/300
f 202/202/202 300/300/300 299/299/299
f 203/203/203 204/204/204 301/301/301
f 203/203/203 301/301/301 300/300/300
f 204/204/204 205/205/205 302/302/302
f 204/204/204 302/302/302 301/301/301
f 205/205/205 206/206/206 303/303/303
f 205/205/205 303/303/303 302/302/302
f 206/206/206 207/207/207 304/304/304
f 206/206/206 304/304/304 303/303/303
f 207/207/207 208/208/208 305/305/305
f 207/207/207 305/305/305 304/304/304
f 208/208/208 209/209/209 306/306/306
f 208/208/208 306/306/306 305/305/305
f 209/209/209 210/210/210 307/307/307
f 209/209/209 307/307/307 306/306/306
f 210/210/210 211/211/211 308/308/308
f 210/210/210 308/308/308 307/307/307
f 211/211/211 212/212/212 309/309/309
f 211/211/211 309/309/309 308/308/308
f 212/212/212 213/213/213 310/310/310
f 212/212/212 310/310/310 309/309/309
f 213/213/213 214/214/214 311/311/311
f 213/213/213 311/311/311 310/310/310
f 214/214/214 215/215/215 312/312/312
f 214/214/214 312/312/312 311/311/311
f 215/215/215 216/216/216 313/313/313
f 215/215/215 313/313/313 312/312/312
f 216/216/216 217/217/217 314/314/314
f 216/216/216 314/314/314 313/313/313
f 217/217/217 218/218/218 315/315/315
f 217/217/217 315/315/315 314/314/314
f 218/218/218 219/219/219 316/316/316
f 218/218/218 316/316/316 315/315/315
f 219/219/219 220/220/220 317/317/317
f 219/219/219 317/317/317 316/316/316
f 220/220/220 221/221/221 318/318/318
f 220/220/220 318/318/318 317/317/317
f 221/221/221 222/222/222 319/319/319
f 221/221/221 319/319/319 318/318/318
f 222/222/222 223/223/223 320/320/320
f 222/222/222 320/320/320 319/319/319
f 223/223/223 224/224/224 321/321/321
f 223/223/223 321/321/321 320/320/320
f 224/224/224 225/225/225 322/322/322
f 224/224/224 322/322/322 321/321/321
f 225/225/225 226/226/226 323/323/323
f 225/225/225 323/323/323 322/322/322
f 226/226/226 227/227/227 324/324/324
f 226/226/226 324/324/324 323/323/323
f 227/227/227 228/228/228 325/325/325
f 227/227/227 325/325/325 324/324/324
f 228/228/228 229/229/229 326/326/326
f 228/228/228 326/326/326 325/325/325
f 229/229/229 230/230/230 327/327/327
f 229/229/229 327/327/327 326/326/326
f 230/230/230 231/231/231 328/328/328
f 230/230/230 328/328/328 327/327/327
f 231/231/231 232/232/232 329/329/329
f 231/231/231 329/329/329 328/328/328
f 232/232/232 233/233/233 330/330/330
f 232/232/232 330/330/330 329/329/329
f 233/233/233 234/234/234 331/331/331
f 233/233/233 331/331/331 330/330/330
f 234/234/234 235/235/235 332/332/332
f 234/234/234 332/332/332 331/331/331
f 235/235/235 236/236/236 333/333/333
f 235/235/235 333/333/333 332/332/332
f 236/236/236 237/237/237 334/334/334
f 236/236/236 334/334/334 333/333/333
f 237/237/237 238/238/238 335/335/335
f 237/237/237 335/335/335 334/334/334
f 238/238/238 239/239/239 336/336/336
f 238/238/238 336/336/336 335/335/335
f 239/239/239 240/240/240 337/337/337
f 239/239/239 337/337/337 336/336/336
f 240/240/240 241/241/241 338/338/338
f 240/240/240 338/338/338 337/337/337
f 241/241/241 242/242/242 339/339/339
f 241/241/241 339/339/339 338/338/338
f 242/242/242 243/243/243 340/340/340
f 242/242/242 340/340/340 339/339/339
f 243/243/243 244/244/244 341/341/341
f 243/243/243 341/341/341 340/340/340
f 244/244/244 245/245/245 342/342/342
f 244/244/244 342/342/342 341/341/341
f 245/245/245 246/246/246 343/343/343
f 245/245/245 343/343/343 342/342/342
f 246/246/246 247/247/247 344/344/344
f 246/246/246 344/344/344 343/343/343
f 247/247/247 248/248/248 345/345/345
f 247/247/247 345/345/345 344/344/344
f 248/248/248 249/249/249 346/346/346
f 248/248/248 346/346/346 345/345/345
f 249/249/249 250/250/250 347/347/347
f 249/249/249 347/347/347 346/346/346
f 250/250/250 251/251/251 348/348/348
f 250/250/250 348/348/348 347/347/347
f 251/251/251 252/252/252 349/349/349
f 251/251/251 349/349/349 348/348/348
f 252/252/252 253/253/253 350/350/350
f 252/252/252 350/350/350 349/349/349
f 253/253/253 254/254/254 351/351/351
f 253/253/253 351/351/351 350/350/350
f 254/254/254 255/255/255 352/352/352
f 254/254/254 352/352/352 351/351/351
f 255/255/255 256/256/256 353/353/353
f 255/255/255 353/353/353 352/352/352
f 256/256/256 257/257/257 354/354/354
f 256/256/256 354/354/354 353/353/353
f 257/257/257 258/258/258 355/355/355
f 257/257/257 355/355/355 354/354/354
f 258/258/258 259/259/259 356/356/356
f 258/258/258 356/356/356 355/355/355
f 259/259/259 260/260/260 357/357/357
f 259/259/259 357/357/357 356/356/356
f 260/260/260 261/261/261 358/358/358
f 260/260/260 358/358/358 357/357/357
f 261/261/261 262/262/262 359/359/359
f 261/261/261 359/359/359 358/358/358
f 262/262/262 263/263/263 360/360/360
f 262/262/262 360/360/360 359/359/359
f 263/263/263 264/264/264 361/361/361
f 263/263/263 361/361/361 360/360/360
f 264/264/264 265/265/265 362/362/362
f 264/264/264 362/362/362 361/361/361
f 265/265/265 266/266/266 363/363/363
f 265/265/265 363/363/363 362/362/362
f 266/266/266 267/267/267 364/364/364
f 266/266/266 364/364/364 363/363/363
f 267/267/267 268/268/268 365/365/365
f 267/267/267 365/365/365 364/364/364
f 268/268/268 269/269/269 366/366/366
f 268/268/268 366/366/366 365/365/365
f 269/269/269 270/270/270 367/367/367
f 269/269/269 367/367/367 366/366/366
f 270/270/270 271/271/271 368/368/368
f 270/270/270 368/368/368 367/367/367
f 271/271/271 272/272/272 369/369/369
f 271/271/271 369/369/369 368/368/368
f 272/272/272 273/273/273 370/370/370
f 272/272/272 370/370/370 369/369/369
f 273/273/273 274/274/274 371/371/371
f 273/273/273 371/371/371 370/370/370
f 274/274/274 275/275/275 372/372/372
f 274/274/274 372/372/372 371/371/371
f 275/275/275 276/276/276 373/373/373
f 275/275/275 373/373/373 372/372/372
f 276/276/276 277/277/277 374/374/374
f 276/276/276 374/374/374 373/373/373
f 277/277/277 278/278/278 375/375/375
f 277/277/277 375/375/375 374/374/374
f 278/278/278 279/279/279 376/376/376
f 278/278/278 376/376/376 375/375/375
f 279/279/279 280/280/280 377/377/377
f 279/279/279 377/377/377 376/376/376
f 280/280/280 281/281/281 378/378/378
f 280/280/280 378/378/378 377/377/377
f 281/281/281 282/282/282 379/379/379
f 281/281/281 379/379/379 378/378/378
f 282/282/282 283/283/283 380/380/380
f 282/282/282 380/380/380 379/379/379
f 283/283/283 284/284/284 381/381/381
f 283/283/283 381/381/381 380/380/380
f 284/284/284 285/285/285 382/382/382
f 284/284/284 382/382/382 381/381/381
f 285/285/285 286/286/286 383/383/383
f 285/285/285 383/383/383 382/382/382
f 286/286/286 287/287/287 384/384/384
f 286/286/286 384/384/384 383/383/383
f 287/287/287 288/288/288 385/385/385
f 287/287/287 385/385/385 384/384/384
f 288/288/288 289/289/289 386/386/386
f 288/288/288 386/386/386 385/385/385
f 289/289/289 290/290/290 387/387/387
f 289/289/289 387/387/387 386/386/386
f 290/290/290 291/291/291 388/388/388
f 290/290/290 388/388/388 387/387/387
f 389/389/389 390/390/390 391/391/391
f 389/389/389 391/391/391 392/392/392
f 389/389/389 392/392/392 393/393/393
f 389/389/389 393/393/393 394/394/394
f 389/389/389 394/394/394 395/395/395
f 389/389/389 395/395/395 396/396/396
f 389/389/389 396/396/396 397/397/397
f 389/389/389 397/397/397 398/398/398
f 389/389/389 398/398/398 399/399/399
f 389/389/389 399/399/399 400/400/400
f 389/389/389 400/400/400 401/401/401
f 389/389/389 401/401/401 402/402/402
f 389/389/389 402/402/402 403/403/403
f 389/389/389 403/403/403 404/404/404
f 389/389/389 404/404/404 405/405/405
f 389/389/389 405/405/405 406/406/406
f 389/389/389 406/406/406 407/407/407
f 389/389/389 407/407/407 408/408/408
f 389/389/389 408/408/408 409/409/409
f 389/389/389 409/409/409 410/410/410
f 389/389/389 410/410/410 411/411/411
f 389/389/389 411/411/411 412/412/412
f 389/389/389 412/412/412 413/413/413
f 389/389/389 413/413/413 414/414/414
f 389/389/389 414/414/414 415/415/415
f 389/389/389 415/415/415 416/416/416
f 389/389/389 416/416/416 417/417/417
f 389/389/389 417/417/417 418/418/418
f 389/389/389 418/418/418 419/419/419
f 389/389/389 419/419/419 420/420/420
f 389/389/389 420/420/420 421/421/421
f 389/389/389 421/421/421 422/422/422
f 389/389/389 422/422/422 423/423/423
f 389/389/389 423/423/423 424/424/424
f 389/389/389 424/424/424 425/425/425
f 389/389/389 425/425/425 426/426/426
f 389/389/389 426/426/426 427/427/427
f 389/389/389 427/427/427 428/428/428
f 389/389/389 428/428/428 429/429/429
f 389/389/389 429/429/429 430/430/430
f 389/389/389 430/430/430 431/431/431
f 389/389/389 431/431/431 432/432/432
f 389/389/389 432/432/432 433/433/433
f 389/389/389 433/433/433 434/434/434
f 389/389/389 434/434/434 435/435/435
f 389/389/389 435/435/435 436/436/436
f 389/389/389 436/436/436 437/437/437
f 389/389/389 437/437/437 438/438/438
f 389/389/389 438/438/438 439/439/439
f 389/389/389 439/439/439 440/440/440
f 389/389/389 440/440/440 441/441/441
f 389/389/389 441/441/441 442/442/442
f 389/389/389 442/442/442 443/443/443
f 389/389/389 443/443/443 444/444/444
f 389/389/389 444/444/444 445/445/445
f 389/389/389 445/445/445 446/446/446
f 389/389/389 446/446/446 447/447/447
f 389/389/389 447/447/447 448/448/448
f 389/389/389 448/448/448 449/449/449
f 389/389/389 449/449/449 450/450/450
f 389/389/389 450/450/450 451/451/451
f 389/389/389 451/451/451 452/452/452
f 389/389/389 452/452/452 453/453/453
f 389/389/389 453/453/453 454/454/454
f 389/389/389 454/454/454 455/455/455
f 389/389/389 455/455/455 456/456/456
f 389/389/389 456/456/456 457/457/457
f 389/389/389 457/457/457 458/458/458
f 389/389/389 458/458/458 459/459/459
f 389/389/389 459/459/459 460/460/460
f 389/389/389 460/460/460 461/461/461
f 389/389/389 461/461/461 462/462/462
f 389/389/389 462/462/462 463/463/463
f 389/389/389 463/463/463 464/464/464
f 389/389/389 464/464/464 465/465/465
f 389/389/389 465/465/465 466/466/466
f 389/389/389 466/466/466 467/467/467
f 389/389/389 467/467/467 468/468/468
f 389/389/389 468/468/468 469/469/469
f 389/389/389 469/469/469 470/470/470
f 389/389/389 470/470/470 471/471/471
f 389/389/389 471/471/471 472/472/472
f 389/389/389 472/472/472 473/473/473
f 389/389/389 473/473/473 474/474/474
f 389/389/389 474/474/474 475/475/475
f 389/389/389 475/475/475 476/476/476
f 389/389/389 476/476/476 477/477/477
f 389/389/389 477/477/477 478/478/478
f 389/389/389 478/478/478 479/479/479
f 389/389/389 479/479/479 480/480/480
f 389/389/389 480/480/480 481/481/481
f 389/389/389 481/481/481 482/482/482
f 389/389/389 482/482/482 483/483/483
f 389/389/389 483/483/483 484/484/484
f 389/389/389 484/484/484 485/485/485
f 389/389/389 485/485/485 390/390/390
f 486/486/486 488/488/488 487/487/487
f 486/486/486 489/489/489 488/488/488
f 486/486/486 490/490/490 489/489/489
f 486/486/486 491/491/491 490/490/490
f 486/486/486 492/492/492 491/491/491
f 486/486/486 493/493/493 492/492/492
f 486/486/486 494/494/494 493/493/493
f 486/486/486 495/495/495 494/494/494
f 486/486/486 496/496/496 495/495/495
f 486/486/486 497/497/497 496/496/496
f 486/486/486 498/498/498 497/497/497
f 486/486/486 499/499/499 498/498/498
f 486/486/486 500/500/500 499/499/499
f 486/486/486 501/501/501 500/500/500
f 486/486/486 502/502/502 501/501/501
f 486/486/486 503/503/503 502/502/502
f 486/486/486 504/504/504 503/503/503
f 486/486/486 505/505/505 504/504/504
f 486/486/486 506/506/506 505/505/505
f 486/486/486 507/507/507 506/506/506
f 486/486/486 508/508/508 507/507/507
f 486/486/486 509/509/509 508/508/508
f 486/486/486 510/510/510 509/509/509
f 486/486/486 511/511/511 510/510/510
f 486/486/486 512/512/512 511/511/511
f 486/486/486 513/513/513 512/512/512
f 486/486/486 514/514/514 513/513/513
f 486/486/486 515/515/515 514/514/514
f 486/486/486 516/516/516 515/515/515
f 486/486/486 517/517/517 516/516/516
f 486/486/486 518/518/518 517/517/517
f 486/486/486 519/519/519 518/518/518
f 486/486/486 520/520/520 519/519/519
f 486/486/486 521/521/521 520/520/520
f 486/486/486 522/522/522 521/521/521
f 486/486/486 523/523/523 522/522/522
f 486/486/486 524/524/524 523/523/523
f 486/486/486 525/525/525 524/524/524
f 486/486/486 526/526/526 525/525/525
f 486/486/486 527/527/527 526/526/526
f 486/486/486 528/528/528 527/527/527
f 486/486/486 529/529/529 528/528/528
f 486/486/486 530/530/530 529/529/529
f 486/486/486 531/531/531 530/530/530
f 486/486/486 532/532/532 531/531/531
f 486/486/486 533/533/533 532/532/532
f 486/486/486 534/534/534 533/533/533
f 486/486/486 535/535/535 534/534/534
f 486/486/486 536/536/536 535/535/535
f 486/486/486 537/537/537 536/536/536
f 486/486/486 538/538/538 537/537/537
f 486/486/486 539/539/539 538/538/538
f 486/486/486 540/540/540 539/539/539
f 486/486/486 541/541/541 540/540/540
f 486/486/486 542/542/542 541/541/541
f 486/486/486 543/543/543 542/542/542
f 486/486/486 544/544/544 543/543/543
f 486/486/486 545/545/545 544/544/544
f 486/486/486 546/546/546 545/545/545
f 486/486/486 547/547/547 546/546/546
f 486/486/486 548/548/548 547/547/547
f 486/486/486 549/549/549 548/548/548
f 486/486/486 550/550/550 549/549/549
f 486/486/486 551/551/551 550/550/550
f 486/486/486 552/552/552 551/551/551
f 486/486/486 553/553/553 552/552/552
f 486/486/486 554/554/554 553/553/553
f 486/486/486 555/555/555 554/554/554
f 486/486/486 556/556/556 555/555/555
f 486/486/486 557/557/557 556/556/556
f 486/486/486 558/558/558 557/557/557
f 486/486/486 559/559/559 558/558/558
f 486/486/486 560/560/560 559/559/559
f 486/486/486 561/561/561 560/560/560
f 486/486/486 562/562/562 561/561/561
f 486/486/486 563/563/563 562/562/562
f 486/486/486 564/564/564 563/563/563
f 486/486/486 565/565/565 564/564/564
f 486/486/486 566/566/566 565/565/565
f 486/486/486 567/567/567 566/566/566
f 486/486/486 568/568/568 567/567/567
f 486/486/486 569/569/569 568/568/568
f 486/486/486 570/570/570 569/569/569
f 486/486/486 571/571/571 570/570/570
f 486/486/486 572/572/572 571/571/571
f 486/486/486 573/573/573 572/572/572
f 486/486/486 574/574/574 573/573/573
f 486/486/486 575/575/575 574/574/574
f 486/486/486 576/576/576 575/575/575
f 486/486/486 577/577/577 576/576/576
f 486/486/486 578/578/578 577/577/577
f 486/486/486 579/579/579 578/578/578
f 486/486/486 580/580/580 579/579/579
f 486/486/486 581/581/581 580/580/580
f 486/486/486 582/582/582 581/581/581
f 486/486/486 487/487/487 582/582/582
